<svg width="25" height="25" viewBox="0 0 25 25" fill="none" xmlns="http://www.w3.org/2000/svg">
<path d="M23.6842 20.8333V22.2222C23.6842 23.75 22.5 25 21.0526 25H2.63158C1.17105 25 0 23.75 0 22.2222V2.77778C0 1.25 1.17105 0 2.63158 0H21.0526C22.5 0 23.6842 1.25 23.6842 2.77778V4.16667H11.8421C10.3816 4.16667 9.21053 5.41667 9.21053 6.94444V18.0556C9.21053 19.5833 10.3816 20.8333 11.8421 20.8333H23.6842ZM11.8421 18.0556H25V6.94444H11.8421V18.0556ZM17.1053 14.5833C16.0132 14.5833 15.1316 13.6528 15.1316 12.5C15.1316 11.3472 16.0132 10.4167 17.1053 10.4167C18.1974 10.4167 19.0789 11.3472 19.0789 12.5C19.0789 13.6528 18.1974 14.5833 17.1053 14.5833Z" fill="#FAFAFA"/>
</svg>
