<svg width="28" height="27" viewBox="0 0 28 27" fill="none" xmlns="http://www.w3.org/2000/svg">
<path d="M26.865 24.5C24.9613 21.2087 22.0275 18.8487 18.6038 17.73C20.2973 16.7218 21.6131 15.1856 22.349 13.3572C23.085 11.5289 23.2004 9.50948 22.6776 7.60918C22.1548 5.70887 21.0226 4.03272 19.455 2.83814C17.8873 1.64355 15.9709 0.996582 14 0.996582C12.0291 0.996582 10.1127 1.64355 8.54503 2.83814C6.9774 4.03272 5.84525 5.70887 5.32243 7.60918C4.79961 9.50948 4.91504 11.5289 5.65099 13.3572C6.38694 15.1856 7.70271 16.7218 9.39625 17.73C5.9725 18.8475 3.03875 21.2075 1.135 24.5C1.06519 24.6138 1.01888 24.7405 0.998814 24.8725C0.978746 25.0045 0.985323 25.1392 1.01816 25.2687C1.05099 25.3981 1.10942 25.5197 1.18999 25.6262C1.27056 25.7326 1.37165 25.8219 1.48728 25.8887C1.60292 25.9555 1.73076 25.9985 1.86326 26.015C1.99577 26.0316 2.13025 26.0215 2.25878 25.9853C2.38731 25.949 2.50728 25.8874 2.61161 25.8041C2.71595 25.7207 2.80253 25.6173 2.86625 25.5C5.22125 21.43 9.38375 19 14 19C18.6163 19 22.7788 21.43 25.1338 25.5C25.1975 25.6173 25.2841 25.7207 25.3884 25.8041C25.4927 25.8874 25.6127 25.949 25.7412 25.9853C25.8698 26.0215 26.0042 26.0316 26.1367 26.015C26.2692 25.9985 26.3971 25.9555 26.5127 25.8887C26.6284 25.8219 26.7294 25.7326 26.81 25.6262C26.8906 25.5197 26.949 25.3981 26.9818 25.2687C27.0147 25.1392 27.0213 25.0045 27.0012 24.8725C26.9811 24.7405 26.9348 24.6138 26.865 24.5ZM7 9.99998C7 8.61551 7.41055 7.26214 8.17972 6.11099C8.94889 4.95985 10.0421 4.06264 11.3212 3.53283C12.6003 3.00301 14.0078 2.86439 15.3656 3.13449C16.7235 3.40458 17.9708 4.07127 18.9497 5.05023C19.9287 6.0292 20.5954 7.27648 20.8655 8.63435C21.1356 9.99222 20.997 11.3997 20.4672 12.6788C19.9373 13.9578 19.0401 15.0511 17.889 15.8203C16.7379 16.5894 15.3845 17 14 17C12.1441 16.998 10.3648 16.2599 9.05245 14.9475C7.74012 13.6352 7.00199 11.8559 7 9.99998Z" fill="white"/>
</svg>
